HIERARCHY
ROOT SimulationBone
{
	OFFSET 0.000000 0.000000 0.000000
	CHANNELS 6 Xposition Yposition Zposition Zrotation Yrotation Xrotation 
	JOINT Hips
	{
		OFFSET 0.000000 0.000000 0.000000
		CHANNELS 6 Xposition Yposition Zposition Zrotation Yrotation Xrotation 
		JOINT RightUpLeg
		{
			OFFSET 0.103458 1.857820 10.548502
			CHANNELS 3 Zrotation Yrotation Xrotation
			JOINT RightLeg
			{
				OFFSET 43.500000 -0.000023 -0.000011
				CHANNELS 3 Zrotation Yrotation Xrotation
				JOINT RightFoot
				{
					OFFSET 42.372192 0.000038 0.000002
					CHANNELS 3 Zrotation Yrotation Xrotation
					JOINT RightToe
					{
						OFFSET 17.299992 -0.000004 0.000006
						CHANNELS 3 Zrotation Yrotation Xrotation
						End Site
						{
							OFFSET 0.000000 0.000000 0.000000
						}
					}
				}
			}
		}
		JOINT LeftUpLeg
		{
			OFFSET 0.103461 1.857814 -10.548508
			CHANNELS 3 Zrotation Yrotation Xrotation
			JOINT LeftLeg
			{
				OFFSET 43.500042 -0.000015 0.000008
				CHANNELS 3 Zrotation Yrotation Xrotation
				JOINT LeftFoot
				{
					OFFSET 42.372253 0.000008 0.000006
					CHANNELS 3 Zrotation Yrotation Xrotation
					JOINT LeftToe
					{
						OFFSET 17.299973 -0.000014 0.000011
						CHANNELS 3 Zrotation Yrotation Xrotation
						End Site
						{
							OFFSET 0.000000 0.000000 0.000000
						}
					}
				}
			}
		}
		JOINT Spine
		{
			OFFSET 6.901966 -2.603737 -0.000007
			CHANNELS 3 Zrotation Yrotation Xrotation
			JOINT Spine1
			{
				OFFSET 12.588102 0.000017 0.000001
				CHANNELS 3 Zrotation Yrotation Xrotation
				JOINT Spine2
				{
					OFFSET 12.343197 -0.000013 0.000000
					CHANNELS 3 Zrotation Yrotation Xrotation
					JOINT Neck
					{
						OFFSET 25.832905 -0.000008 0.000000
						CHANNELS 3 Zrotation Yrotation Xrotation
						JOINT Head
						{
							OFFSET 11.766610 0.000009 -0.000002
							CHANNELS 3 Zrotation Yrotation Xrotation
							End Site
							{
								OFFSET 0.000000 0.000000 0.000000
							}
						}
					}
					JOINT RightShoulder
					{
						OFFSET 19.745903 -1.480377 6.000115
						CHANNELS 3 Zrotation Yrotation Xrotation
						JOINT RightArm
						{
							OFFSET 11.284125 -0.000014 -0.000024
							CHANNELS 3 Zrotation Yrotation Xrotation
							JOINT RightForeArm
							{
								OFFSET 33.000046 -0.000012 0.000029
								CHANNELS 3 Zrotation Yrotation Xrotation
								JOINT RightHand
								{
									OFFSET 25.199989 0.000034 0.000012
									CHANNELS 3 Zrotation Yrotation Xrotation
									End Site
									{
										OFFSET 0.000000 0.000000 0.000000
									}
								}
							}
						}
					}
					JOINT LeftShoulder
					{
						OFFSET 19.746098 -1.480362 -6.000071
						CHANNELS 3 Zrotation Yrotation Xrotation
						JOINT LeftArm
						{
							OFFSET 11.284137 -0.000006 -0.000008
							CHANNELS 3 Zrotation Yrotation Xrotation
							JOINT LeftForeArm
							{
								OFFSET 33.000095 0.000017 0.000000
								CHANNELS 3 Zrotation Yrotation Xrotation
								JOINT LeftHand
								{
									OFFSET 25.199778 0.000144 0.000423
									CHANNELS 3 Zrotation Yrotation Xrotation
									End Site
									{
										OFFSET 0.000000 0.000000 0.000000
									}
								}
							}
						}
					}
				}
			}
		}
	}
}
MOTION
Frames: 5
Frame Time: 0.016667
329.047553 0.000000 18.278210 180.000000 -14.528409 180.000000 1.541355 84.793183 -3.746245 100.608011 -3.454195 -176.579298 168.090770 -10.548389 179.908451 -83.405475 1.241542 -1.316396 67.887775 -1.057624 -5.289725 21.454553 0.003109 0.000020 172.614788 -12.589442 -175.350711 -36.562555 5.532444 13.926728 92.242714 -11.104583 -13.717628 21.454553 -0.003092 0.000000 9.933458 2.090003 -0.786775 9.834930 4.239252 -1.393852 9.516005 4.230622 -1.419476 10.905687 4.572820 -4.842302 -1.711999 2.822128 -5.246738 -147.139765 -73.925115 -35.093506 -0.304803 48.849658 28.962758 -77.605601 -11.650746 2.618029 -4.255176 -13.966419 35.155400 -154.473537 74.192732 27.619515 0.185000 -39.023846 -33.159021 -96.202922 3.298058 -2.811185 -8.942150 6.353515 -59.133568 
327.950697 0.000000 18.745451 180.000000 -11.858488 180.000000 1.379872 84.927170 -3.703807 100.489116 -3.448997 -176.665816 165.687603 -9.824997 -179.177855 -85.202511 1.785882 -4.296938 68.526522 1.168553 -5.226062 21.454558 0.003106 0.000022 174.110715 -13.178205 -176.816973 -35.958715 5.223878 13.121920 92.423045 -10.572800 -13.899401 21.454553 -0.003092 0.000000 10.062893 2.150624 -0.646605 10.099200 4.349422 -1.103621 9.780181 4.342541 -1.129920 11.154024 4.031260 -4.791714 -1.529206 3.033993 -5.287972 -147.347464 -73.867385 -34.882908 -0.224875 50.305076 32.110842 -73.622027 -13.469796 2.572391 -2.763103 -13.664710 32.836239 -157.545415 73.495126 24.486018 -1.297482 -40.901610 -30.738415 -96.402689 3.270021 -2.818349 -9.154672 6.231313 -59.472232 
326.781862 0.000000 19.165444 180.000000 -9.212271 180.000000 1.132887 85.154582 -3.666377 100.011034 -3.411886 -177.173934 163.203412 -9.043112 -178.840921 -86.084327 2.414078 -7.029651 69.263110 3.118593 -5.408996 21.454556 0.003108 0.000019 175.448575 -13.709661 -178.936932 -35.016357 5.018372 12.376885 92.334877 -10.124698 -14.123931 21.454553 -0.003092 -0.000000 10.098472 2.183902 -0.453221 10.177857 4.399154 -0.712896 9.858764 4.394632 -0.739506 11.698967 3.208102 -4.621105 -1.326549 3.162340 -5.215381 -147.659420 -73.395022 -34.579609 0.183311 51.224318 35.587147 -69.431989 -14.951988 2.501858 -0.717511 -12.044535 31.215871 -159.846971 73.073450 22.131759 -3.142106 -43.106620 -28.742422 -96.601979 3.260564 -2.826551 -9.711230 6.395114 -59.339161 
325.541244 0.000000 19.532103 180.000000 -6.599395 180.000000 0.838825 85.464561 -3.660738 99.315380 -3.468035 -177.968624 160.731659 -8.220200 -178.813833 -86.147372 2.947284 -8.956664 70.249833 4.430418 -5.760294 21.454553 0.003112 0.000016 176.731445 -13.914093 178.642191 -33.862096 4.955946 11.555151 92.084247 -9.662182 -14.416934 21.454553 -0.003092 0.000000 10.073458 2.162011 -0.241026 10.135768 4.336774 -0.291761 9.816669 4.334798 -0.318002 12.412024 2.299223 -4.367124 -1.230369 3.100643 -5.021517 -147.850603 -72.718998 -34.406584 1.029352 51.822908 39.229173 -65.329276 -16.043006 2.409102 1.550860 -9.197386 30.489181 -161.584899 72.937380 20.349497 -5.305949 -45.550059 -27.133352 -96.868208 3.247440 -2.837472 -10.362311 6.618049 -58.907389 
324.228569 0.000000 19.841477 180.000000 -4.026205 180.000000 0.540572 85.850111 -3.709959 98.561280 -3.728340 -178.912439 158.381762 -7.421535 -178.867299 -85.477759 3.163693 -9.694841 71.419610 4.893517 -6.124415 21.454555 0.003113 0.000016 178.082881 -13.604725 176.247684 -32.567769 5.023257 10.555690 91.748144 -9.110053 -14.776333 21.454551 -0.003092 0.000000 10.026725 2.066071 -0.035861 10.049069 4.127411 0.108063 9.730056 4.127853 0.083087 13.134423 1.503697 -4.078175 -1.310790 2.794786 -4.726369 -147.754717 -72.077931 -34.526725 2.404841 52.336998 42.928599 -61.587123 -16.750522 2.307636 3.749866 -5.373937 30.653768 -163.113280 72.997621 18.779609 -7.615278 -48.026624 -25.859174 -97.324366 3.190462 -2.853813 -10.776448 6.599174 -58.357150 
